PathFileType	4	(X/Y/Z)	D:\TRACE\v60_Jaco2_6-2-23\JustArmDRS_Motion2_3-v60.trc
DataRate	CameraRate	NumFrames	NumMarkers	Units	OrigDataRate	OrigDataStartFrame	OrigNumFrames
100.00	100.00	      31	9	mm	100.00	3485	      6969
Frame#	Time	front left toe			Front right toe			aft left toe			aft right toe			Arm			FL body			FR body			AL Body			AR Body			
		X1	Y1	Z1	X2	Y2	Z2	X3	Y3	Z3	X4	Y4	Z4	X5	Y5	Z5	X6	Y6	Z6	X7	Y7	Z7	X8	Y8	Z8	X9	Y9	Z9	

3485	34.840	-151.17125	32.11195	-156.17015	256.53104	31.80172	-200.77397	-83.62851	-8.81209	445.76645	318.27557	-5.60064	433.89377	97.17561	1107.70020	-654.84241	-38.56669	585.43292	-300.80774	121.46775	581.92999	-319.18481	67.69529	573.59436	638.61688	224.01059	564.78571	622.16138	
3486	34.850	-150.89691	32.42119	-155.72310	256.79453	32.14215	-200.49849	-83.06184	-9.66866	445.99930	318.30655	-6.27632	433.94153	99.23669	1108.06970	-653.47137	-37.31678	586.04309	-300.03580	121.99889	582.19769	-319.12598	68.49686	572.83337	639.14899	225.42648	563.92090	622.89136	
3487	34.860	-150.74963	32.91932	-155.27080	257.40128	32.63678	-200.17708	-83.72376	-9.55835	446.01480	318.71756	-7.17655	434.21494	101.23280	1108.73462	-652.28967	-36.51078	586.40594	-299.82150	122.80148	582.63666	-317.34860	69.64981	572.02679	639.82794	225.75558	562.81470	623.41949	
3488	34.870	-150.46175	33.27179	-154.95288	257.78107	33.12465	-199.78387	-83.37742	-10.13866	446.22928	318.54468	-8.09065	434.27103	103.43587	1109.18933	-651.04932	-35.50669	587.18079	-298.70959	123.35312	583.18976	-316.91113	70.58464	571.13361	640.38782	226.73254	561.93237	624.48358	
3489	34.880	-150.08487	33.62318	-154.70366	257.82620	33.33595	-199.64903	-83.17461	-10.81114	446.51743	318.88828	-8.69483	434.48773	105.74172	1109.87939	-649.73798	-35.16126	587.49982	-298.31122	124.37481	583.50848	-316.40869	71.67208	570.38831	640.98761	227.83379	560.91772	624.77307	
3490	34.890	-150.03284	33.88853	-154.50101	257.82983	33.48785	-199.49402	-83.26344	-11.28435	446.77322	319.08463	-9.49014	434.71674	107.98064	1110.56653	-648.36035	-34.17647	588.28430	-297.43518	124.87595	584.14453	-315.84521	72.64051	569.51251	641.67432	228.71208	560.09509	625.23956	
3491	34.900	-149.97690	34.33694	-154.26736	258.05569	33.80597	-199.13519	-83.39079	-11.84522	447.02570	319.36655	-9.95637	434.90997	109.73826	1111.31323	-647.28870	-33.54082	588.78375	-296.86749	125.57240	584.44537	-315.47623	73.11150	568.73883	642.18951	230.72289	559.43866	626.27252	
3492	34.910	-149.94466	34.92926	-154.04912	257.89841	33.99171	-198.88817	-83.30556	-12.28413	447.10019	319.38593	-10.74967	435.20248	112.33876	1111.90466	-646.06476	-32.78420	589.20959	-296.43216	126.27894	584.88885	-314.45633	74.48741	567.95715	642.49786	230.92905	558.56757	626.44458	
3493	34.920	-149.99207	35.35684	-153.97865	257.66068	34.23331	-198.61339	-83.18690	-12.85879	447.19312	319.62451	-11.25889	435.39557	114.33205	1112.71985	-644.53217	-31.76072	589.75012	-295.66931	126.79850	585.41357	-314.18546	75.00064	567.44373	643.25574	231.51071	557.76025	627.10919	
3494	34.930	-149.97588	35.53024	-153.87259	257.74377	34.54711	-198.33926	-84.38934	-12.55884	447.12839	319.78568	-11.83935	435.66010	116.19493	1113.48767	-643.40680	-31.45999	590.35760	-295.17889	127.50486	585.66803	-313.69754	75.88055	566.43170	643.86279	232.39967	557.07831	628.04681	
3495	34.940	-149.92920	35.80328	-153.58925	257.96033	34.95637	-198.11066	-84.00955	-13.17477	447.31680	319.94250	-12.55287	435.88034	118.29224	1114.24097	-642.33197	-30.92297	591.06970	-294.64169	128.14984	586.29059	-312.81735	76.51192	565.80371	644.48901	232.90459	555.96967	628.07404	
3496	34.950	-149.94063	36.21796	-153.29636	258.00955	35.23111	-197.89427	-84.01892	-13.70147	447.37766	319.84604	-13.00053	435.98767	119.68230	1115.23621	-641.15350	-29.81430	591.19690	-294.02313	128.54457	586.74402	-312.02985	77.24401	564.88013	644.89496	233.50186	555.20868	628.60254	
3497	34.960	-149.85771	36.52405	-153.07545	258.07004	35.42914	-197.75725	-83.72349	-14.28450	447.47958	319.91611	-13.54936	436.23068	121.56460	1116.04163	-639.82458	-29.21957	592.05640	-293.56494	129.46884	587.09558	-311.93823	77.46078	564.29736	645.36914	233.99138	554.34564	629.72443	
3498	34.970	-149.79480	36.87012	-152.82695	257.81058	35.53093	-197.60643	-83.81838	-14.84692	447.87650	319.47324	-14.36227	436.21609	122.79628	1116.79785	-638.51166	-29.06972	592.59924	-293.15067	129.87621	587.75751	-311.60483	78.40980	563.22180	645.67511	234.51022	553.13062	629.46002	
3499	34.980	-149.85249	37.01868	-152.69414	257.35400	35.65661	-197.44377	-83.82642	-15.41053	448.24017	319.09122	-14.83182	436.23328	124.20557	1117.47119	-637.21442	-28.19178	592.97723	-292.55618	130.58585	588.22095	-311.01953	78.90482	562.45233	646.06982	235.06238	552.43256	630.52130	
3500	34.990	-150.26465	37.38678	-152.46303	256.96136	35.73592	-197.12462	-84.25398	-15.77449	448.19305	318.60504	-15.38103	436.47086	125.26697	1118.25745	-636.13953	-27.82090	593.88019	-291.95383	131.20300	588.61023	-310.33667	79.22737	561.55927	646.79333	236.46169	551.21313	630.37384	
3501	35.000	-150.76199	37.82200	-152.22171	256.60986	35.97906	-196.94038	-84.58389	-16.19765	448.27606	318.14319	-15.94070	436.59000	126.34563	1119.27551	-634.86163	-27.62287	594.19983	-291.64221	131.44142	589.04901	-309.46802	79.36008	560.91992	647.17365	235.90929	550.57062	631.54529	
3502	35.010	-150.80450	37.94847	-152.06746	256.47983	36.23931	-196.84242	-84.84402	-16.71681	448.45392	317.97247	-16.50045	436.74405	127.32347	1120.38501	-633.73730	-27.24112	594.80450	-291.31738	131.96718	589.27271	-309.29367	79.82906	559.99188	647.79279	236.39186	549.86877	632.07837	
3503	35.020	-150.89633	38.02492	-151.95753	256.27853	36.42608	-196.64693	-85.06113	-17.08213	448.62421	317.82718	-16.85019	436.80649	128.19246	1121.47583	-632.47430	-26.47360	595.36499	-290.58438	132.62378	590.09088	-309.11832	79.84911	559.47858	648.19965	236.24782	549.21637	632.49475	
3504	35.030	-151.26021	38.29929	-151.84338	256.11887	36.63499	-196.51959	-85.27682	-17.38844	448.72681	317.58038	-17.24623	436.90625	129.41325	1122.11938	-631.21387	-26.32688	595.81616	-290.22525	132.77464	590.58356	-308.92157	80.22440	558.78754	648.14160	236.20860	548.03583	632.17761	
3505	35.040	-151.62137	38.63893	-151.77563	255.66530	36.77700	-196.42638	-85.59594	-17.59558	448.73782	317.35934	-17.57687	437.00156	129.75018	1123.08813	-630.54700	-26.17248	596.27472	-289.88577	133.04691	590.85815	-308.05905	80.21345	558.13165	648.85126	236.67955	547.87134	633.42462	
3506	35.050	-152.10449	38.83685	-151.72824	255.39603	36.87575	-196.31245	-86.04920	-18.00032	448.97043	317.20557	-17.79743	437.13043	130.35371	1123.76123	-629.22742	-26.11398	596.89722	-289.50156	133.53160	591.42938	-308.23550	80.36266	557.64545	649.27094	236.86612	546.94971	632.96307	
3507	35.060	-152.74696	39.12762	-151.53801	255.12233	36.95555	-195.93687	-86.44557	-18.15595	449.12039	316.48172	-18.19565	437.18332	130.65602	1124.46448	-628.53625	-26.06409	597.37213	-289.32285	133.70387	592.10974	-307.70004	80.45245	556.97693	649.74152	237.19351	546.42065	634.13629	
3508	35.070	-153.12404	39.22024	-151.53610	254.35606	37.02173	-195.83673	-86.88931	-18.47489	449.11792	315.80173	-18.62861	437.49481	130.71458	1125.00024	-627.68567	-25.70828	597.84961	-288.66348	133.91655	592.44739	-307.32733	80.76160	556.30267	650.13757	236.98239	545.44666	633.70490	
3509	35.080	-153.69519	39.39351	-151.52013	253.95135	37.28912	-195.81194	-87.21666	-18.78911	449.13553	315.57037	-18.95524	437.71939	131.16524	1125.52063	-626.51733	-25.45131	598.26465	-288.15610	133.95757	592.56879	-307.05103	80.35965	555.66400	650.44690	237.27144	544.66589	634.00482	
3510	35.090	-153.90591	39.38021	-151.46495	253.57011	37.41485	-195.80748	-87.43849	-19.16071	449.08817	315.34338	-19.17294	437.81131	131.13826	1126.26001	-625.75275	-25.21270	598.54315	-287.76541	133.83479	592.86829	-306.53448	80.91285	554.94818	650.42407	237.11174	543.82770	634.31104	
3511	35.100	-154.30157	39.50029	-151.41707	253.03819	37.51785	-195.68520	-87.63448	-19.60682	449.19217	314.97214	-19.35266	437.89175	131.34102	1127.20190	-624.67194	-25.68302	598.93457	-287.47849	133.03833	592.90759	-305.36301	81.27830	554.26056	651.37048	237.32178	543.53448	635.80060	
3512	35.110	-154.94901	39.67451	-151.14456	252.62651	37.73792	-195.62604	-88.16386	-19.96348	449.41885	314.34351	-19.69425	437.91660	132.05270	1128.06604	-623.82629	-26.02267	599.29822	-287.17593	132.90854	593.43793	-305.01611	80.76331	553.65479	650.99774	237.45549	542.92169	636.06171	
3513	35.120	-155.65445	39.81004	-150.94017	252.22453	37.91547	-195.51610	-88.42270	-20.22728	449.54504	313.68225	-19.96962	437.83618	132.17355	1128.77856	-622.89941	-26.43018	599.90289	-286.81461	132.77721	593.99469	-305.29251	80.63795	553.17053	651.58490	237.37033	542.17041	636.24152	
3514	35.130	-156.11215	39.94002	-150.76869	251.68486	37.79248	-195.41637	-88.75936	-20.42868	449.75879	313.36255	-20.14040	437.86627	132.43480	1129.25647	-622.11688	-26.71425	600.31885	-286.42648	132.96318	594.29907	-305.38303	80.91547	552.74298	651.84479	237.35721	541.66858	636.37982	
3515	35.140	-156.34981	39.90622	-150.78496	250.88722	37.70602	-195.32468	-89.10379	-20.55712	449.94159	312.80319	-20.42655	437.96613	132.59073	1129.71838	-621.45905	-26.64695	600.49097	-286.20895	132.58920	594.52631	-305.10745	80.80950	552.29443	652.11292	237.32324	540.85858	635.48578	
